<?xml version="1.0" encoding="UTF-8"?>
<svg width="80px" height="76px" viewBox="0 0 80 76" version="1.1" xmlns="http://www.w3.org/2000/svg" xmlns:xlink="http://www.w3.org/1999/xlink">
    <title>4D39124E-967B-445E-86BB-46BEEFD037E2</title>
    <g id="Page-1" stroke="none" stroke-width="1" fill="none" fill-rule="evenodd">
        <g id="Sucess-msg" transform="translate(-847.000000, -301.000000)" fill="#07BC81">
            <g id="Group-3" transform="translate(847.000000, 301.000000)">
                <path d="M60.5692308,27.2149469 L32.8769231,53.222811 C32.3076923,53.7720359 31.5538462,54.0642419 30.7692308,54.0642419 C30.6615385,54.0642419 30.5384615,54.0642419 30.4153846,54.0489432 C29.5230769,53.941852 28.7076923,53.4507623 28.2153846,52.7026537 L18.9846154,38.9337845 C18.0307692,37.5263001 18.4153846,35.6292559 19.8307692,34.6960325 C21.2461538,33.7475104 23.1538462,34.129979 24.0923077,35.5359335 L31.3076923,46.2924802 L56.3538462,22.7783112 C57.5846154,21.6156067 59.5384615,21.6615029 60.6923077,22.9007012 C61.8615385,24.1230708 61.8153846,26.0675411 60.5692308,27.2149469 M72.2,27.5974155 C70.9846154,23.8951195 74.6153846,17.6991283 72.3692308,14.6240809 C70.0769231,11.5016073 63.0307692,13.0314817 59.8923077,10.7687975 C56.8,8.51988218 56.0923077,1.36007017 52.3692308,0.165238296 C48.7692308,-0.995936344 43.9846154,4.34332518 40,4.34332518 C36.0153846,4.34332518 31.2307692,-0.995936344 27.6307692,0.165238296 C23.9076923,1.36007017 23.2,8.51988218 20.1076923,10.7687975 C16.9692308,13.0314817 9.92307692,11.5016073 7.64615385,14.6240809 C5.38461538,17.6991283 9.01538462,23.8951195 7.8,27.5974155 C6.63076923,31.1620227 0,34.0381865 0,38.0005611 C0,41.9629357 6.63076923,44.8238008 7.8,48.4037068 C9.01538462,52.1060027 5.38461538,58.300464 7.63076923,61.3770414 C9.92307692,64.497985 16.9692308,62.9681107 20.1076923,65.2323247 C23.2,67.4797102 23.9076923,74.6410521 27.6307692,75.8343541 C31.2307692,76.9970586 36.0153846,71.6577971 40,71.6577971 C43.9846154,71.6577971 48.7692308,76.9970586 52.3692308,75.8343541 C56.0923077,74.6410521 56.8,67.4797102 59.8923077,65.2323247 C63.0307692,62.9681107 70.0769231,64.497985 72.3538462,61.3770414 C74.6153846,58.300464 70.9846154,52.1060027 72.2,48.4037068 C73.3692308,44.8238008 80,41.9629357 80,38.0005611 C80,34.0381865 73.3692308,31.1773215 72.2,27.5974155" id="Fill-1"></path>
            </g>
        </g>
    </g>
</svg>